<svg width="500" height="500" viewBox="0 0 500 500" fill="none" xmlns="http://www.w3.org/2000/svg">
<path d="M375.357 142.426C380.16 139.176 385.878 136.635 392.503 134.801C399.139 132.968 404.503 132.051 408.587 132.051C412.68 132.051 415.3 132.051 416.441 132.051V134.176C409.8 134.458 403.587 135.76 397.795 138.093C392.014 140.416 387.253 143.093 383.503 146.135C379.764 149.166 376.133 153.187 372.607 158.197C369.076 163.213 366.363 167.484 364.462 171.01C362.555 174.541 360.337 179.051 357.795 184.551L298.92 313.281C293.696 324.728 291.087 331.999 291.087 335.093H289.191L229.691 199.385C227.717 194.874 225.003 191.525 221.545 189.343C218.087 187.15 214.592 186.051 211.066 186.051H209.357V183.926H257.003V186.051H255.107C250.868 186.051 248.045 188.025 246.628 191.968C246.347 192.817 246.212 193.812 246.212 194.947C246.212 196.072 246.566 197.484 247.274 199.176L291.524 310.114L344.024 184.551C352.357 164.942 362.8 150.9 375.357 142.426Z" fill="#A27A3E"/>
<path d="M311.489 332.263C305.557 333.815 300.291 334.596 295.697 334.596C291.114 334.596 287.057 334.31 283.531 333.742C279.999 333.169 276.223 332.076 272.197 330.451C268.182 328.826 264.406 326.956 260.864 324.846C257.333 322.732 253.807 320.122 250.281 317.013C243.791 311.789 237.906 306.143 232.614 300.076C227.322 294.008 217.119 282.612 202.01 265.888C186.911 249.154 176.89 238.034 171.947 232.534C166.999 227.034 163.187 224.138 160.51 223.846V221.742C168.702 221.742 174.176 221.57 176.926 221.221C179.676 220.862 182.598 220.221 185.697 219.305C188.807 218.388 191.426 217.154 193.551 215.596C201.869 210.237 206.031 201.341 206.031 188.909C206.031 178.607 203.739 170.346 199.156 164.138C194.572 157.93 188.114 154.758 179.781 154.617H153.531V280.805C153.531 284.336 154.833 287.44 157.447 290.117C160.057 292.799 163.265 294.138 167.072 294.138H169.614L169.822 296.263H123.468V294.138H126.218C129.744 294.138 132.848 292.878 135.531 290.346C138.208 287.805 139.619 284.695 139.76 281.013V163.513C139.619 159.846 138.244 156.711 135.635 154.096C133.02 151.487 129.885 150.18 126.218 150.18H123.468V148.055H180.635C193.051 148.055 203.036 151.549 210.593 158.534C218.145 165.523 221.926 174.773 221.926 186.284C221.926 197.784 218.468 207.669 211.551 215.93C204.635 224.18 196.161 228.305 186.135 228.305C186.135 228.305 186.062 228.305 185.926 228.305C190.718 233.388 196.145 239.315 202.218 246.076C226.645 273.049 242.322 289.987 249.239 296.888C256.156 303.805 262.26 309.482 267.551 313.93C272.843 318.388 277.536 321.669 281.635 323.784C289.952 328.294 298.208 330.555 306.406 330.555C308.098 330.555 309.791 330.414 311.489 330.138V332.263Z" fill="#A27A3E"/>
<mask id="mask0_17_4" style="mask-type:luminance" maskUnits="userSpaceOnUse" x="12" y="12" width="476" height="476">
<path d="M12.2761 12.4791H487.261V487.479H12.2761V12.4791Z" fill="white"/>
</mask>
<g mask="url(#mask0_17_4)">
<mask id="mask1_17_4" style="mask-type:luminance" maskUnits="userSpaceOnUse" x="-77" y="-77" width="653" height="654">
<path d="M-76.3489 328.943L170.891 -76.4844L575.958 170.979L328.719 576.401L-76.3489 328.943Z" fill="white"/>
</mask>
<g mask="url(#mask1_17_4)">
<mask id="mask2_17_4" style="mask-type:luminance" maskUnits="userSpaceOnUse" x="-77" y="-77" width="653" height="654">
<path d="M-76.3489 328.943L170.865 -76.4376L575.88 170.995L328.672 576.375L-76.3489 328.943Z" fill="white"/>
</mask>
<g mask="url(#mask2_17_4)">
<mask id="mask3_17_4" style="mask-type:luminance" maskUnits="userSpaceOnUse" x="12" y="12" width="476" height="476">
<path d="M47.2554 126.255C-21.0103 238.198 14.3179 384.333 126.162 452.656C238.005 520.984 384.011 485.63 452.276 373.687C520.542 261.745 485.214 115.604 373.375 47.2812C261.531 -21.047 115.521 14.3124 47.2554 126.255Z" fill="white"/>
</mask>
<g mask="url(#mask3_17_4)">
<path d="M47.2554 126.254C-21.0103 238.197 14.3174 384.333 126.161 452.656C237.999 520.984 384.009 485.63 452.274 373.686C520.54 261.743 485.212 115.602 373.369 47.2792C261.531 -21.0489 115.521 14.3109 47.2554 126.254Z" stroke="url(#paint0_linear_17_4)" stroke-width="27.5508"/>
</g>
</g>
</g>
</g>
<mask id="mask4_17_4" style="mask-type:luminance" maskUnits="userSpaceOnUse" x="34" y="34" width="431" height="432">
<path d="M34.698 34.8177H464.833V465.12H34.698V34.8177Z" fill="white"/>
</mask>
<g mask="url(#mask4_17_4)">
<mask id="mask5_17_4" style="mask-type:luminance" maskUnits="userSpaceOnUse" x="-46" y="-46" width="592" height="592">
<path d="M-45.5676 321.49L178.318 -45.6354L545.12 178.448L321.234 545.573L-45.5676 321.49Z" fill="white"/>
</mask>
<g mask="url(#mask5_17_4)">
<mask id="mask6_17_4" style="mask-type:luminance" maskUnits="userSpaceOnUse" x="-46" y="-46" width="592" height="592">
<path d="M-45.5676 321.49L178.313 -45.625L545.099 178.453L321.224 545.568L-45.5676 321.49Z" fill="white"/>
</mask>
<g mask="url(#mask6_17_4)">
<mask id="mask7_17_4" style="mask-type:luminance" maskUnits="userSpaceOnUse" x="34" y="34" width="431" height="432">
<path d="M66.3699 137.932C4.54695 239.307 36.5417 371.651 137.828 433.526C239.115 495.406 371.339 463.385 433.162 362.01C494.984 260.63 462.99 128.292 361.708 66.4114C260.422 4.53641 128.193 36.552 66.3699 137.932Z" fill="white"/>
</mask>
<g mask="url(#mask7_17_4)">
<path d="M66.37 137.931C4.54701 239.307 36.5414 371.651 137.827 433.526C239.113 495.406 371.337 463.385 433.16 362.009C494.983 260.629 462.988 128.29 361.708 66.4096C260.422 4.53461 128.193 36.5559 66.37 137.931Z" stroke="url(#paint1_linear_17_4)" stroke-width="9.61073"/>
</g>
</g>
</g>
</g>
<path d="M96.4965 358.684H102.08V365.809H99.7048L99.4757 364.58C99.059 365.096 98.5173 365.466 97.8507 365.684C97.1944 365.893 96.5069 365.997 95.7882 365.997C94.4809 365.997 93.3507 365.742 92.3923 365.226C91.434 364.7 90.6892 363.955 90.1632 362.997C89.6475 362.028 89.3923 360.867 89.3923 359.518C89.3923 358.132 89.6892 356.913 90.2882 355.872C90.8819 354.82 91.7309 353.992 92.8298 353.393C93.9236 352.799 95.21 352.497 96.684 352.497C97.934 352.497 98.9809 352.721 99.8298 353.163C100.689 353.596 101.413 354.257 101.997 355.143L99.684 356.83C99.3767 356.278 98.9548 355.872 98.4132 355.622C97.8715 355.372 97.2934 355.247 96.684 355.247C95.8194 355.247 95.085 355.424 94.4757 355.768C93.8611 356.117 93.3819 356.611 93.0382 357.247C92.7048 357.887 92.5382 358.622 92.5382 359.455C92.5382 360.679 92.8559 361.622 93.4965 362.288C94.1319 362.945 95.0173 363.268 96.1423 363.268C96.585 363.268 97.0225 363.195 97.4548 363.038C97.8975 362.887 98.2778 362.653 98.6007 362.33C98.9184 362.012 99.1059 361.617 99.1632 361.143H96.4965V358.684Z" fill="#A27A3E"/>
<path d="M129.157 362.976L129.844 365.309C129.579 365.518 129.23 365.684 128.803 365.809C128.386 365.934 127.954 365.997 127.511 365.997C126.704 365.997 125.995 365.835 125.386 365.518C124.787 365.184 124.292 364.705 123.907 364.08L122.323 361.559C122.141 361.268 121.959 361.07 121.782 360.955C121.6 360.83 121.391 360.762 121.157 360.747V365.809H118.198V352.684H122.511C124.313 352.684 125.667 353.054 126.573 353.788C127.49 354.512 127.948 355.512 127.948 356.788C127.948 357.804 127.636 358.632 127.011 359.268C126.386 359.908 125.584 360.325 124.615 360.518C125.016 360.726 125.376 361.054 125.698 361.497L126.323 362.455C126.709 363.054 127.225 363.351 127.865 363.351C128.1 363.351 128.323 363.325 128.532 363.268C128.74 363.216 128.948 363.117 129.157 362.976ZM122.344 355.143H121.157V358.393H122.323C123.251 358.393 123.917 358.262 124.323 357.997C124.725 357.736 124.928 357.32 124.928 356.747C124.928 356.195 124.698 355.788 124.24 355.538C123.792 355.278 123.162 355.143 122.344 355.143Z" fill="#A27A3E"/>
<path d="M152.978 352.684H155.978L155.999 359.788C155.999 361.028 155.759 362.117 155.29 363.059C154.832 363.992 154.171 364.716 153.311 365.226C152.447 365.742 151.426 365.997 150.249 365.997C148.301 365.997 146.832 365.518 145.832 364.559C144.832 363.591 144.332 362.153 144.332 360.247V352.684H147.332V359.997C147.332 361.179 147.582 362.028 148.082 362.538C148.592 363.054 149.311 363.309 150.228 363.309C151.113 363.309 151.801 363.012 152.29 362.413C152.79 361.82 153.03 360.887 153.02 359.622L152.978 352.684Z" fill="#A27A3E"/>
<path d="M175.389 365.809H172.451V352.684H177.285C179.128 352.684 180.514 353.038 181.43 353.747C182.357 354.455 182.826 355.497 182.826 356.872C182.826 358.221 182.305 359.283 181.264 360.059C180.222 360.841 178.753 361.226 176.868 361.226H175.389V365.809ZM177.264 355.143H175.389V358.726H177.035C177.977 358.726 178.67 358.591 179.118 358.309C179.576 358.018 179.805 357.549 179.805 356.893C179.805 356.242 179.597 355.788 179.18 355.538C178.774 355.278 178.139 355.143 177.264 355.143Z" fill="#A27A3E"/>
<path d="M204.372 365.997C202.997 366.007 201.815 365.762 200.831 365.247C199.841 364.721 199.086 363.971 198.56 362.997C198.029 362.028 197.768 360.861 197.768 359.497C197.768 358.122 198.044 356.913 198.602 355.872C199.169 354.82 199.961 353.992 200.977 353.393C202.003 352.799 203.216 352.497 204.622 352.497C205.872 352.497 206.961 352.768 207.893 353.309C208.82 353.851 209.55 354.611 210.081 355.58C210.607 356.554 210.872 357.695 210.872 358.997C210.872 360.403 210.591 361.632 210.039 362.684C209.482 363.726 208.711 364.538 207.727 365.122C206.753 365.695 205.633 365.981 204.372 365.997ZM204.268 363.309C205.32 363.309 206.175 362.934 206.831 362.184C207.482 361.424 207.81 360.367 207.81 359.018C207.81 357.851 207.508 356.924 206.914 356.226C206.315 355.533 205.524 355.184 204.539 355.184C203.8 355.184 203.154 355.367 202.602 355.726C202.044 356.075 201.607 356.57 201.289 357.205C200.982 357.846 200.831 358.591 200.831 359.434C200.831 360.674 201.133 361.632 201.747 362.309C202.357 362.976 203.195 363.309 204.268 363.309Z" fill="#A27A3E"/>
<path d="M256.487 362.976L257.174 365.309C256.909 365.518 256.56 365.684 256.132 365.809C255.716 365.934 255.284 365.997 254.841 365.997C254.034 365.997 253.325 365.835 252.716 365.518C252.117 365.184 251.622 364.705 251.237 364.08L249.653 361.559C249.471 361.268 249.289 361.07 249.112 360.955C248.929 360.83 248.721 360.762 248.487 360.747V365.809H245.528V352.684H249.841C251.643 352.684 252.997 353.054 253.903 353.788C254.82 354.512 255.278 355.512 255.278 356.788C255.278 357.804 254.966 358.632 254.341 359.268C253.716 359.908 252.914 360.325 251.945 360.518C252.346 360.726 252.705 361.054 253.028 361.497L253.653 362.455C254.039 363.054 254.554 363.351 255.195 363.351C255.429 363.351 255.653 363.325 255.862 363.268C256.07 363.216 256.278 363.117 256.487 362.976ZM249.674 355.143H248.487V358.393H249.653C250.58 358.393 251.247 358.262 251.653 357.997C252.054 357.736 252.257 357.32 252.257 356.747C252.257 356.195 252.028 355.788 251.57 355.538C251.122 355.278 250.492 355.143 249.674 355.143Z" fill="#A27A3E"/>
<path d="M270.037 365.809L275.724 352.684H278.245L283.724 365.809H280.662L279.599 363.122H274.183L273.099 365.809H270.037ZM275.224 360.622H278.599L276.933 356.393L275.224 360.622Z" fill="#A27A3E"/>
<path d="M298.615 365.809L299.074 352.684H301.594L306.199 362.018L310.761 352.684H313.303L313.657 365.809H310.74L310.574 358.976L307.178 365.809H304.99L301.636 359.038L301.407 365.809H298.615Z" fill="#A27A3E"/>
<path d="M330.167 365.809V352.684H333.188V365.809H330.167Z" fill="#A27A3E"/>
<path d="M360.67 362.976L361.358 365.309C361.092 365.518 360.743 365.684 360.316 365.809C359.899 365.934 359.467 365.997 359.024 365.997C358.217 365.997 357.509 365.835 356.899 365.518C356.3 365.184 355.806 364.705 355.42 364.08L353.837 361.559C353.655 361.268 353.472 361.07 353.295 360.955C353.113 360.83 352.905 360.762 352.67 360.747V365.809H349.712V352.684H354.024C355.826 352.684 357.181 353.054 358.087 353.788C359.004 354.512 359.462 355.512 359.462 356.788C359.462 357.804 359.149 358.632 358.524 359.268C357.899 359.908 357.097 360.325 356.129 360.518C356.53 360.726 356.889 361.054 357.212 361.497L357.837 362.455C358.222 363.054 358.738 363.351 359.379 363.351C359.613 363.351 359.837 363.325 360.045 363.268C360.254 363.216 360.462 363.117 360.67 362.976ZM353.858 355.143H352.67V358.393H353.837C354.764 358.393 355.431 358.262 355.837 357.997C356.238 357.736 356.441 357.32 356.441 356.747C356.441 356.195 356.212 355.788 355.754 355.538C355.306 355.278 354.675 355.143 353.858 355.143Z" fill="#A27A3E"/>
<path d="M384.887 355.288H378.846V357.893H384.491V360.497H378.846V363.205H385.054L384.887 365.809H375.887V352.684H384.887V355.288Z" fill="#A27A3E"/>
<path d="M400.099 365.809V363.622L406.661 355.33H400.432V352.684H410.682V354.872L404.119 363.163H410.911L410.724 365.809H400.099Z" fill="#A27A3E"/>
<path d="M140.335 377.684H143.335L138.668 390.809H134.398L130.502 377.684H133.71L136.71 388.205L140.335 377.684Z" fill="#A27A3E"/>
<path d="M167.033 380.288H160.992V382.893H166.637V385.497H160.992V388.205H167.2L167.033 390.809H158.033V377.684H167.033V380.288Z" fill="#A27A3E"/>
<path d="M191.286 377.684H194.203V390.809H191.516L185.703 382.663V390.809H182.786V377.684H185.474L191.286 385.83V377.684Z" fill="#A27A3E"/>
<path d="M220.841 377.684L220.445 380.33H216.466V390.809H213.445V380.33H209.279V377.684H220.841Z" fill="#A27A3E"/>
<path d="M244.314 377.684H247.314L247.334 384.788C247.334 386.028 247.095 387.117 246.626 388.059C246.168 388.992 245.506 389.716 244.647 390.226C243.782 390.742 242.761 390.997 241.584 390.997C239.636 390.997 238.168 390.518 237.168 389.559C236.168 388.591 235.668 387.153 235.668 385.247V377.684H238.668V384.997C238.668 386.179 238.918 387.028 239.418 387.538C239.928 388.054 240.647 388.309 241.564 388.309C242.449 388.309 243.136 388.012 243.626 387.413C244.126 386.82 244.366 385.887 244.355 384.622L244.314 377.684Z" fill="#A27A3E"/>
<path d="M274.745 387.976L275.433 390.309C275.167 390.518 274.818 390.684 274.391 390.809C273.974 390.934 273.542 390.997 273.099 390.997C272.292 390.997 271.584 390.835 270.974 390.518C270.375 390.184 269.881 389.705 269.495 389.08L267.912 386.559C267.73 386.268 267.547 386.07 267.37 385.955C267.188 385.83 266.98 385.762 266.745 385.747V390.809H263.787V377.684H268.099C269.901 377.684 271.256 378.054 272.162 378.788C273.079 379.512 273.537 380.512 273.537 381.788C273.537 382.804 273.224 383.632 272.599 384.268C271.974 384.908 271.172 385.325 270.204 385.518C270.605 385.726 270.964 386.054 271.287 386.497L271.912 387.455C272.297 388.054 272.813 388.351 273.454 388.351C273.688 388.351 273.912 388.325 274.12 388.268C274.329 388.216 274.537 388.117 274.745 387.976ZM267.933 380.143H266.745V383.393H267.912C268.839 383.393 269.506 383.262 269.912 382.997C270.313 382.736 270.516 382.32 270.516 381.747C270.516 381.195 270.287 380.788 269.829 380.538C269.381 380.278 268.75 380.143 267.933 380.143Z" fill="#A27A3E"/>
<path d="M288.295 390.809L293.983 377.684H296.504L301.983 390.809H298.92L297.858 388.122H292.441L291.358 390.809H288.295ZM293.483 385.622H296.858L295.191 381.393L293.483 385.622Z" fill="#A27A3E"/>
<path d="M339.858 390.976C338.244 390.976 336.994 390.637 336.108 389.955C335.233 389.262 334.733 388.242 334.608 386.893L337.421 386.476C337.504 387.132 337.759 387.622 338.191 387.955C338.619 388.288 339.218 388.455 339.983 388.455C340.634 388.455 341.134 388.346 341.483 388.122C341.827 387.903 342.004 387.575 342.004 387.143C342.004 386.768 341.816 386.471 341.441 386.247C341.077 386.028 340.473 385.82 339.629 385.622C338.712 385.403 337.941 385.137 337.316 384.83C336.691 384.512 336.218 384.101 335.9 383.601C335.577 383.091 335.421 382.445 335.421 381.663C335.421 380.846 335.629 380.122 336.046 379.497C336.462 378.872 337.046 378.387 337.796 378.038C338.546 377.679 339.41 377.497 340.4 377.497C341.676 377.497 342.718 377.825 343.525 378.476C344.343 379.132 344.816 380.028 344.941 381.163L342.316 381.601C342.202 381.101 341.968 380.716 341.608 380.434C341.259 380.158 340.816 380.018 340.275 380.018C339.733 380.018 339.296 380.143 338.962 380.393C338.629 380.643 338.462 380.986 338.462 381.413C338.462 381.82 338.619 382.137 338.941 382.372C339.259 382.611 339.843 382.83 340.691 383.038C341.593 383.262 342.369 383.512 343.025 383.788C343.676 384.07 344.176 384.45 344.525 384.934C344.884 385.424 345.066 386.075 345.066 386.893C345.066 387.7 344.848 388.408 344.421 389.018C343.988 389.632 343.379 390.111 342.587 390.455C341.806 390.804 340.9 390.976 339.858 390.976Z" fill="#A27A3E"/>
<path d="M360.731 390.809V377.684H363.752V388.163H369.418L369.231 390.809H360.731Z" fill="#A27A3E"/>
<mask id="mask8_17_4" style="mask-type:luminance" maskUnits="userSpaceOnUse" x="108" y="104" width="311" height="27">
<path d="M418.667 104H108V130.667H418.667V104Z" fill="white"/>
</mask>
<g mask="url(#mask8_17_4)">
<path d="M121.547 111.146H114.714V114.917H121.214V117.229H114.714V121.188H121.797L121.609 123.5H112.089V108.834H121.547V111.146Z" fill="#A27A3E"/>
<path d="M140.858 123.5H137.879L142.837 116.063L138.171 108.834H141.212L144.4 113.792L147.587 108.834H150.462L145.775 115.938L150.671 123.5H147.587L144.296 118.25L140.858 123.5Z" fill="#A27A3E"/>
<path d="M178.557 108.834L178.224 111.188H173.682V123.5H170.995V111.188H166.286V108.834H178.557Z" fill="#A27A3E"/>
<path d="M207.117 120.938L207.742 123.021C207.461 123.229 207.122 123.391 206.721 123.5C206.315 123.625 205.898 123.688 205.471 123.688C203.914 123.688 202.7 123.011 201.825 121.646L199.7 118.375C199.476 118.032 199.247 117.787 199.013 117.646C198.773 117.511 198.518 117.438 198.242 117.438H198.138V123.5H195.513V108.834H200.096C201.956 108.834 203.357 109.224 204.305 110C205.263 110.766 205.742 111.823 205.742 113.167C205.742 113.99 205.56 114.688 205.2 115.271C204.851 115.854 204.367 116.323 203.742 116.667C203.128 117 202.43 117.219 201.638 117.313C202.055 117.537 202.435 117.912 202.784 118.438L203.93 120.146C204.232 120.594 204.518 120.896 204.784 121.063C205.06 121.229 205.398 121.313 205.805 121.313C206.289 121.313 206.726 121.188 207.117 120.938ZM199.909 111.021H198.138V115.334H199.784C200.909 115.334 201.732 115.167 202.263 114.834C202.805 114.49 203.075 113.933 203.075 113.167C203.075 111.74 202.018 111.021 199.909 111.021Z" fill="#A27A3E"/>
<path d="M222.501 123.5L228.772 108.834H231.043L237.043 123.5H234.335L233.001 120.146H226.585L225.23 123.5H222.501ZM227.522 117.896H232.126L229.855 112.125L227.522 117.896Z" fill="#A27A3E"/>
<path d="M263.834 108.834H266.417V123.5H264.063L256.75 113.271V123.5H254.167V108.834H256.542L263.834 119.063V108.834Z" fill="#A27A3E"/>
<path d="M287.595 123.688C286.48 123.688 285.532 123.427 284.741 122.896C283.96 122.37 283.439 121.615 283.157 120.625L285.366 119.625C285.574 120.198 285.85 120.625 286.199 120.917C286.559 121.198 287.017 121.334 287.574 121.334C288.809 121.334 289.428 120.578 289.428 119.063V108.834H292.137V118.792C292.137 120.365 291.746 121.573 290.97 122.417C290.204 123.266 289.079 123.688 287.595 123.688Z" fill="#A27A3E"/>
<path d="M320.275 111.146H313.441V114.917H319.941V117.229H313.441V121.188H320.525L320.337 123.5H310.816V108.834H320.275V111.146Z" fill="#A27A3E"/>
<path d="M349.836 120.938L350.461 123.021C350.18 123.229 349.841 123.391 349.44 123.5C349.034 123.625 348.617 123.688 348.19 123.688C346.633 123.688 345.419 123.011 344.544 121.646L342.419 118.375C342.195 118.032 341.966 117.787 341.732 117.646C341.492 117.511 341.237 117.438 340.961 117.438H340.857V123.5H338.232V108.834H342.815C344.674 108.834 346.075 109.224 347.023 110C347.982 110.766 348.461 111.823 348.461 113.167C348.461 113.99 348.279 114.688 347.919 115.271C347.57 115.854 347.086 116.323 346.461 116.667C345.846 117 345.148 117.219 344.357 117.313C344.773 117.537 345.154 117.912 345.503 118.438L346.648 120.146C346.95 120.594 347.237 120.896 347.503 121.063C347.779 121.229 348.117 121.313 348.523 121.313C349.008 121.313 349.445 121.188 349.836 120.938ZM342.628 111.021H340.857V115.334H342.503C343.628 115.334 344.45 115.167 344.982 114.834C345.523 114.49 345.794 113.933 345.794 113.167C345.794 111.74 344.737 111.021 342.628 111.021Z" fill="#A27A3E"/>
<path d="M366.928 123.5V108.834H369.616V123.5H366.928Z" fill="#A27A3E"/>
<path d="M386.663 123.5L392.934 108.834H395.205L401.205 123.5H398.497L397.163 120.146H390.747L389.392 123.5H386.663ZM391.684 117.896H396.288L394.017 112.125L391.684 117.896Z" fill="#A27A3E"/>
</g>
<defs>
<linearGradient id="paint0_linear_17_4" x1="79.7756" y1="528.719" x2="420.187" y2="-28.4963" gradientUnits="userSpaceOnUse">
<stop stop-color="#8C5D14"/>
<stop offset="0.125" stop-color="#8C5D14"/>
<stop offset="0.140625" stop-color="#8C5D14"/>
<stop offset="0.144531" stop-color="#8F6016"/>
<stop offset="0.148438" stop-color="#906116"/>
<stop offset="0.152344" stop-color="#916217"/>
<stop offset="0.15625" stop-color="#926318"/>
<stop offset="0.160156" stop-color="#936419"/>
<stop offset="0.164062" stop-color="#94651A"/>
<stop offset="0.167969" stop-color="#95661A"/>
<stop offset="0.171875" stop-color="#97671B"/>
<stop offset="0.175781" stop-color="#98681C"/>
<stop offset="0.179687" stop-color="#996A1D"/>
<stop offset="0.183594" stop-color="#9A6B1E"/>
<stop offset="0.1875" stop-color="#9B6C1F"/>
<stop offset="0.191406" stop-color="#9C6D20"/>
<stop offset="0.195312" stop-color="#9E6E20"/>
<stop offset="0.199219" stop-color="#9F6F21"/>
<stop offset="0.203125" stop-color="#A07122"/>
<stop offset="0.207031" stop-color="#A17223"/>
<stop offset="0.210937" stop-color="#A27324"/>
<stop offset="0.214844" stop-color="#A37424"/>
<stop offset="0.21875" stop-color="#A57525"/>
<stop offset="0.222656" stop-color="#A67626"/>
<stop offset="0.226562" stop-color="#A77827"/>
<stop offset="0.230469" stop-color="#A87928"/>
<stop offset="0.234375" stop-color="#A97A29"/>
<stop offset="0.238281" stop-color="#AA7B29"/>
<stop offset="0.242187" stop-color="#AC7C2A"/>
<stop offset="0.246094" stop-color="#AD7D2B"/>
<stop offset="0.25" stop-color="#AE7E2C"/>
<stop offset="0.253906" stop-color="#AF802D"/>
<stop offset="0.257812" stop-color="#B0812E"/>
<stop offset="0.261719" stop-color="#B1822E"/>
<stop offset="0.265625" stop-color="#B3832F"/>
<stop offset="0.269531" stop-color="#B48430"/>
<stop offset="0.273438" stop-color="#B58631"/>
<stop offset="0.277344" stop-color="#B68732"/>
<stop offset="0.28125" stop-color="#B78833"/>
<stop offset="0.285156" stop-color="#B88933"/>
<stop offset="0.289062" stop-color="#BA8A34"/>
<stop offset="0.292969" stop-color="#BB8B35"/>
<stop offset="0.296875" stop-color="#BC8C36"/>
<stop offset="0.300781" stop-color="#BD8D37"/>
<stop offset="0.304688" stop-color="#BD8E37"/>
<stop offset="0.308594" stop-color="#BF9038"/>
<stop offset="0.3125" stop-color="#C19139"/>
<stop offset="0.316406" stop-color="#C2923A"/>
<stop offset="0.320312" stop-color="#C3933B"/>
<stop offset="0.324219" stop-color="#C4943C"/>
<stop offset="0.328125" stop-color="#C5963D"/>
<stop offset="0.332031" stop-color="#C6963D"/>
<stop offset="0.335938" stop-color="#C7973E"/>
<stop offset="0.339844" stop-color="#C8983F"/>
<stop offset="0.34375" stop-color="#C9993F"/>
<stop offset="0.347656" stop-color="#CB9B40"/>
<stop offset="0.351562" stop-color="#CC9C41"/>
<stop offset="0.355469" stop-color="#CD9D42"/>
<stop offset="0.359375" stop-color="#CE9E42"/>
<stop offset="0.363281" stop-color="#CF9F43"/>
<stop offset="0.367188" stop-color="#D0A044"/>
<stop offset="0.371094" stop-color="#D1A245"/>
<stop offset="0.375" stop-color="#D2A346"/>
<stop offset="0.378906" stop-color="#D3A447"/>
<stop offset="0.382812" stop-color="#D4A548"/>
<stop offset="0.386719" stop-color="#D5A649"/>
<stop offset="0.390625" stop-color="#D6A74A"/>
<stop offset="0.394531" stop-color="#D6A84C"/>
<stop offset="0.398438" stop-color="#D7A84D"/>
<stop offset="0.402344" stop-color="#D7A94F"/>
<stop offset="0.40625" stop-color="#D8AA50"/>
<stop offset="0.410156" stop-color="#D9AB51"/>
<stop offset="0.414062" stop-color="#D9AC52"/>
<stop offset="0.417969" stop-color="#DAAD54"/>
<stop offset="0.421875" stop-color="#DAAE55"/>
<stop offset="0.425781" stop-color="#DBAF56"/>
<stop offset="0.429688" stop-color="#DBB057"/>
<stop offset="0.433594" stop-color="#DCB159"/>
<stop offset="0.4375" stop-color="#DDB25A"/>
<stop offset="0.441406" stop-color="#DEB35B"/>
<stop offset="0.445312" stop-color="#DEB45C"/>
<stop offset="0.449219" stop-color="#DFB55E"/>
<stop offset="0.453125" stop-color="#DFB65F"/>
<stop offset="0.457031" stop-color="#E0B760"/>
<stop offset="0.460938" stop-color="#E0B861"/>
<stop offset="0.464844" stop-color="#E1B963"/>
<stop offset="0.46875" stop-color="#E1B964"/>
<stop offset="0.472656" stop-color="#E2BA65"/>
<stop offset="0.476562" stop-color="#E2BB66"/>
<stop offset="0.480469" stop-color="#E3BC68"/>
<stop offset="0.484375" stop-color="#E4BD69"/>
<stop offset="0.488281" stop-color="#E4BE6A"/>
<stop offset="0.492188" stop-color="#E5BF6B"/>
<stop offset="0.496094" stop-color="#E5C06D"/>
<stop offset="0.5" stop-color="#E6C16E"/>
<stop offset="0.503906" stop-color="#E7C26F"/>
<stop offset="0.507812" stop-color="#E7C370"/>
<stop offset="0.511719" stop-color="#E7C471"/>
<stop offset="0.515625" stop-color="#E8C573"/>
<stop offset="0.519531" stop-color="#E9C674"/>
<stop offset="0.523438" stop-color="#EAC776"/>
<stop offset="0.527344" stop-color="#EAC877"/>
<stop offset="0.53125" stop-color="#EBC978"/>
<stop offset="0.535156" stop-color="#EBC979"/>
<stop offset="0.539062" stop-color="#ECCA7B"/>
<stop offset="0.542969" stop-color="#ECCB7C"/>
<stop offset="0.546875" stop-color="#EDCC7D"/>
<stop offset="0.550781" stop-color="#EDCD7E"/>
<stop offset="0.554688" stop-color="#EECE80"/>
<stop offset="0.558594" stop-color="#EECF81"/>
<stop offset="0.5625" stop-color="#EFD082"/>
<stop offset="0.566406" stop-color="#F0D183"/>
<stop offset="0.570313" stop-color="#F1D285"/>
<stop offset="0.574219" stop-color="#F1D386"/>
<stop offset="0.578125" stop-color="#F2D487"/>
<stop offset="0.582031" stop-color="#F2D588"/>
<stop offset="0.585938" stop-color="#F3D68A"/>
<stop offset="0.589844" stop-color="#F3D78B"/>
<stop offset="0.59375" stop-color="#F4D88C"/>
<stop offset="0.597656" stop-color="#F5D98D"/>
<stop offset="0.601562" stop-color="#F5DA8F"/>
<stop offset="0.605469" stop-color="#F6DB90"/>
<stop offset="0.609375" stop-color="#F7DC91"/>
<stop offset="0.613281" stop-color="#F7DC92"/>
<stop offset="0.617188" stop-color="#F8DD94"/>
<stop offset="0.621094" stop-color="#F7DC93"/>
<stop offset="0.625" stop-color="#F6DC92"/>
<stop offset="0.628906" stop-color="#F5DA91"/>
<stop offset="0.632812" stop-color="#F3D98F"/>
<stop offset="0.636719" stop-color="#F2D78D"/>
<stop offset="0.640625" stop-color="#F0D58B"/>
<stop offset="0.644531" stop-color="#EED389"/>
<stop offset="0.648438" stop-color="#EDD187"/>
<stop offset="0.652344" stop-color="#EBCF85"/>
<stop offset="0.65625" stop-color="#E9CD83"/>
<stop offset="0.660156" stop-color="#E8CB81"/>
<stop offset="0.664062" stop-color="#E6C97F"/>
<stop offset="0.667969" stop-color="#E4C77D"/>
<stop offset="0.671875" stop-color="#E3C57A"/>
<stop offset="0.675781" stop-color="#E1C378"/>
<stop offset="0.679688" stop-color="#E0C176"/>
<stop offset="0.683594" stop-color="#DEBF74"/>
<stop offset="0.6875" stop-color="#DCBD72"/>
<stop offset="0.691406" stop-color="#DBBB70"/>
<stop offset="0.695312" stop-color="#D9B96E"/>
<stop offset="0.699219" stop-color="#D7B76C"/>
<stop offset="0.703125" stop-color="#D6B56A"/>
<stop offset="0.707031" stop-color="#D4B368"/>
<stop offset="0.710938" stop-color="#D2B166"/>
<stop offset="0.714844" stop-color="#D1AF64"/>
<stop offset="0.71875" stop-color="#CFAD62"/>
<stop offset="0.722656" stop-color="#CEAB60"/>
<stop offset="0.726562" stop-color="#CCAA5E"/>
<stop offset="0.730469" stop-color="#CAA75B"/>
<stop offset="0.734375" stop-color="#C8A559"/>
<stop offset="0.738281" stop-color="#C7A357"/>
<stop offset="0.742188" stop-color="#C5A155"/>
<stop offset="0.746094" stop-color="#C49F53"/>
<stop offset="0.75" stop-color="#C29D51"/>
<stop offset="0.753906" stop-color="#C09C50"/>
<stop offset="0.757812" stop-color="#BF9A4E"/>
<stop offset="0.761719" stop-color="#BD984C"/>
<stop offset="0.765625" stop-color="#BC964A"/>
<stop offset="0.769531" stop-color="#BA9448"/>
<stop offset="0.773438" stop-color="#B89246"/>
<stop offset="0.777344" stop-color="#B69043"/>
<stop offset="0.78125" stop-color="#B58E41"/>
<stop offset="0.785156" stop-color="#B38C3F"/>
<stop offset="0.789062" stop-color="#B28A3D"/>
<stop offset="0.792969" stop-color="#B0883B"/>
<stop offset="0.796875" stop-color="#AE8639"/>
<stop offset="0.800781" stop-color="#AC8437"/>
<stop offset="0.804688" stop-color="#AB8235"/>
<stop offset="0.808594" stop-color="#A98033"/>
<stop offset="0.8125" stop-color="#A87E31"/>
<stop offset="0.816406" stop-color="#A67C2F"/>
<stop offset="0.820312" stop-color="#A47A2D"/>
<stop offset="0.824219" stop-color="#A2782B"/>
<stop offset="0.828125" stop-color="#A17629"/>
<stop offset="0.832031" stop-color="#9F7426"/>
<stop offset="0.835938" stop-color="#9E7224"/>
<stop offset="0.839844" stop-color="#9C7022"/>
<stop offset="0.84375" stop-color="#9A6E20"/>
<stop offset="0.847656" stop-color="#996C1E"/>
<stop offset="0.851562" stop-color="#976A1C"/>
<stop offset="0.855469" stop-color="#96681A"/>
<stop offset="0.859375" stop-color="#946618"/>
<stop offset="0.863281" stop-color="#936517"/>
<stop offset="0.867188" stop-color="#926416"/>
<stop offset="0.875" stop-color="#926416"/>
<stop offset="1" stop-color="#926416"/>
</linearGradient>
<linearGradient id="paint1_linear_17_4" x1="95.7974" y1="502.447" x2="404.135" y2="-2.26518" gradientUnits="userSpaceOnUse">
<stop stop-color="#8C5D14"/>
<stop offset="0.125" stop-color="#8C5D14"/>
<stop offset="0.132812" stop-color="#8C5D14"/>
<stop offset="0.136719" stop-color="#8D5E14"/>
<stop offset="0.140625" stop-color="#8E5F15"/>
<stop offset="0.144531" stop-color="#8E5F15"/>
<stop offset="0.148438" stop-color="#8F6016"/>
<stop offset="0.152344" stop-color="#916217"/>
<stop offset="0.15625" stop-color="#926318"/>
<stop offset="0.160156" stop-color="#936419"/>
<stop offset="0.164062" stop-color="#94651A"/>
<stop offset="0.167969" stop-color="#95661B"/>
<stop offset="0.171875" stop-color="#97681C"/>
<stop offset="0.175781" stop-color="#98691C"/>
<stop offset="0.179688" stop-color="#996A1D"/>
<stop offset="0.183594" stop-color="#9A6B1D"/>
<stop offset="0.1875" stop-color="#9B6C1E"/>
<stop offset="0.191406" stop-color="#9C6D1F"/>
<stop offset="0.195313" stop-color="#9D6E20"/>
<stop offset="0.199219" stop-color="#9F7021"/>
<stop offset="0.203125" stop-color="#A07122"/>
<stop offset="0.207031" stop-color="#A17223"/>
<stop offset="0.210938" stop-color="#A27324"/>
<stop offset="0.214844" stop-color="#A37425"/>
<stop offset="0.21875" stop-color="#A57526"/>
<stop offset="0.222656" stop-color="#A67626"/>
<stop offset="0.226562" stop-color="#A77727"/>
<stop offset="0.230469" stop-color="#A87928"/>
<stop offset="0.234375" stop-color="#A97A28"/>
<stop offset="0.238281" stop-color="#AA7B29"/>
<stop offset="0.242188" stop-color="#AB7C2A"/>
<stop offset="0.246094" stop-color="#AC7D2B"/>
<stop offset="0.25" stop-color="#AE7F2C"/>
<stop offset="0.253906" stop-color="#AF802D"/>
<stop offset="0.257812" stop-color="#B0812E"/>
<stop offset="0.261719" stop-color="#B1822E"/>
<stop offset="0.265625" stop-color="#B2832F"/>
<stop offset="0.269531" stop-color="#B48430"/>
<stop offset="0.273437" stop-color="#B58531"/>
<stop offset="0.277344" stop-color="#B68632"/>
<stop offset="0.28125" stop-color="#B78833"/>
<stop offset="0.285156" stop-color="#B88933"/>
<stop offset="0.289062" stop-color="#B98A34"/>
<stop offset="0.292969" stop-color="#BA8B35"/>
<stop offset="0.296875" stop-color="#BC8C36"/>
<stop offset="0.300781" stop-color="#BD8D36"/>
<stop offset="0.304688" stop-color="#BE8E37"/>
<stop offset="0.308594" stop-color="#BF9038"/>
<stop offset="0.3125" stop-color="#C09139"/>
<stop offset="0.316406" stop-color="#C1923A"/>
<stop offset="0.320312" stop-color="#C3933B"/>
<stop offset="0.324219" stop-color="#C4943C"/>
<stop offset="0.328125" stop-color="#C5953D"/>
<stop offset="0.332031" stop-color="#C6963D"/>
<stop offset="0.335938" stop-color="#C7973E"/>
<stop offset="0.339844" stop-color="#C8993F"/>
<stop offset="0.34375" stop-color="#CA9A3F"/>
<stop offset="0.347656" stop-color="#CB9B40"/>
<stop offset="0.351562" stop-color="#CC9C41"/>
<stop offset="0.355469" stop-color="#CD9D42"/>
<stop offset="0.359375" stop-color="#CE9F43"/>
<stop offset="0.363281" stop-color="#CFA044"/>
<stop offset="0.367188" stop-color="#D1A145"/>
<stop offset="0.371094" stop-color="#D2A245"/>
<stop offset="0.375" stop-color="#D3A346"/>
<stop offset="0.378906" stop-color="#D3A447"/>
<stop offset="0.382813" stop-color="#D4A548"/>
<stop offset="0.386719" stop-color="#D5A64A"/>
<stop offset="0.390625" stop-color="#D6A74B"/>
<stop offset="0.394531" stop-color="#D6A84C"/>
<stop offset="0.398438" stop-color="#D7A94E"/>
<stop offset="0.402344" stop-color="#D7AA4F"/>
<stop offset="0.40625" stop-color="#D8AB50"/>
<stop offset="0.410156" stop-color="#D9AB51"/>
<stop offset="0.414063" stop-color="#D9AC52"/>
<stop offset="0.417969" stop-color="#DAAD54"/>
<stop offset="0.421875" stop-color="#DAAE55"/>
<stop offset="0.425781" stop-color="#DBAF56"/>
<stop offset="0.429688" stop-color="#DCB057"/>
<stop offset="0.433594" stop-color="#DCB158"/>
<stop offset="0.4375" stop-color="#DDB25A"/>
<stop offset="0.441406" stop-color="#DDB35B"/>
<stop offset="0.445312" stop-color="#DEB45D"/>
<stop offset="0.449219" stop-color="#DFB55E"/>
<stop offset="0.453125" stop-color="#DFB65F"/>
<stop offset="0.457031" stop-color="#E0B760"/>
<stop offset="0.460937" stop-color="#E0B861"/>
<stop offset="0.464844" stop-color="#E1B962"/>
<stop offset="0.46875" stop-color="#E1BA64"/>
<stop offset="0.472656" stop-color="#E2BB65"/>
<stop offset="0.476562" stop-color="#E3BC66"/>
<stop offset="0.480469" stop-color="#E3BD68"/>
<stop offset="0.484375" stop-color="#E3BE69"/>
<stop offset="0.488281" stop-color="#E4BE6A"/>
<stop offset="0.492188" stop-color="#E5BF6C"/>
<stop offset="0.496094" stop-color="#E5C06D"/>
<stop offset="0.5" stop-color="#E6C16E"/>
<stop offset="0.503906" stop-color="#E7C26F"/>
<stop offset="0.507813" stop-color="#E7C370"/>
<stop offset="0.511719" stop-color="#E8C472"/>
<stop offset="0.515625" stop-color="#E8C473"/>
<stop offset="0.519531" stop-color="#E9C574"/>
<stop offset="0.523438" stop-color="#E9C675"/>
<stop offset="0.527344" stop-color="#EAC777"/>
<stop offset="0.53125" stop-color="#EBC878"/>
<stop offset="0.535156" stop-color="#EBC97A"/>
<stop offset="0.539062" stop-color="#ECCA7B"/>
<stop offset="0.542969" stop-color="#ECCB7C"/>
<stop offset="0.546875" stop-color="#EDCC7D"/>
<stop offset="0.550781" stop-color="#EDCD7E"/>
<stop offset="0.554688" stop-color="#EECE7F"/>
<stop offset="0.558594" stop-color="#EFCF81"/>
<stop offset="0.5625" stop-color="#EFD082"/>
<stop offset="0.566406" stop-color="#F0D183"/>
<stop offset="0.570312" stop-color="#F0D284"/>
<stop offset="0.574219" stop-color="#F1D385"/>
<stop offset="0.578125" stop-color="#F2D487"/>
<stop offset="0.582031" stop-color="#F2D588"/>
<stop offset="0.585938" stop-color="#F3D68A"/>
<stop offset="0.589844" stop-color="#F3D78B"/>
<stop offset="0.59375" stop-color="#F4D78C"/>
<stop offset="0.597656" stop-color="#F5D88D"/>
<stop offset="0.601562" stop-color="#F5D98E"/>
<stop offset="0.605469" stop-color="#F6DA90"/>
<stop offset="0.609375" stop-color="#F6DB91"/>
<stop offset="0.613281" stop-color="#F6DC92"/>
<stop offset="0.617188" stop-color="#F7DD93"/>
<stop offset="0.621094" stop-color="#F7DD93"/>
<stop offset="0.625" stop-color="#F7DD93"/>
<stop offset="0.628906" stop-color="#F5DA91"/>
<stop offset="0.632812" stop-color="#F3D88F"/>
<stop offset="0.636719" stop-color="#F1D68D"/>
<stop offset="0.640625" stop-color="#F0D58B"/>
<stop offset="0.644531" stop-color="#EED389"/>
<stop offset="0.648438" stop-color="#EDD187"/>
<stop offset="0.652344" stop-color="#EBCF85"/>
<stop offset="0.65625" stop-color="#EACD83"/>
<stop offset="0.660156" stop-color="#E8CB81"/>
<stop offset="0.664062" stop-color="#E6C97F"/>
<stop offset="0.667969" stop-color="#E4C77C"/>
<stop offset="0.671875" stop-color="#E3C57A"/>
<stop offset="0.675781" stop-color="#E1C378"/>
<stop offset="0.679688" stop-color="#E0C176"/>
<stop offset="0.683594" stop-color="#DEBF74"/>
<stop offset="0.6875" stop-color="#DCBD72"/>
<stop offset="0.691406" stop-color="#DBBB70"/>
<stop offset="0.695312" stop-color="#D9B96F"/>
<stop offset="0.699219" stop-color="#D8B76C"/>
<stop offset="0.703125" stop-color="#D6B56A"/>
<stop offset="0.707031" stop-color="#D4B368"/>
<stop offset="0.710938" stop-color="#D2B166"/>
<stop offset="0.714844" stop-color="#D1AF64"/>
<stop offset="0.71875" stop-color="#CFAD62"/>
<stop offset="0.722656" stop-color="#CDAB60"/>
<stop offset="0.726562" stop-color="#CCA95E"/>
<stop offset="0.730469" stop-color="#CAA75C"/>
<stop offset="0.734375" stop-color="#C9A55A"/>
<stop offset="0.738281" stop-color="#C7A358"/>
<stop offset="0.742188" stop-color="#C5A156"/>
<stop offset="0.746094" stop-color="#C39F54"/>
<stop offset="0.75" stop-color="#C29E52"/>
<stop offset="0.753906" stop-color="#C09B4F"/>
<stop offset="0.757812" stop-color="#BF994D"/>
<stop offset="0.761719" stop-color="#BD974B"/>
<stop offset="0.765625" stop-color="#BB9549"/>
<stop offset="0.769531" stop-color="#B99347"/>
<stop offset="0.773438" stop-color="#B89245"/>
<stop offset="0.777344" stop-color="#B68F43"/>
<stop offset="0.78125" stop-color="#B58D41"/>
<stop offset="0.785156" stop-color="#B38B3F"/>
<stop offset="0.789062" stop-color="#B28A3D"/>
<stop offset="0.792969" stop-color="#B0883B"/>
<stop offset="0.796875" stop-color="#AE8639"/>
<stop offset="0.800781" stop-color="#AD8437"/>
<stop offset="0.804688" stop-color="#AB8134"/>
<stop offset="0.808594" stop-color="#A97F32"/>
<stop offset="0.8125" stop-color="#A87E31"/>
<stop offset="0.816406" stop-color="#A67C2F"/>
<stop offset="0.820312" stop-color="#A47A2D"/>
<stop offset="0.824219" stop-color="#A2782B"/>
<stop offset="0.828125" stop-color="#A17629"/>
<stop offset="0.832031" stop-color="#9F7426"/>
<stop offset="0.835938" stop-color="#9E7224"/>
<stop offset="0.839844" stop-color="#9C7022"/>
<stop offset="0.84375" stop-color="#9B6E21"/>
<stop offset="0.847656" stop-color="#996C1E"/>
<stop offset="0.851563" stop-color="#976A1C"/>
<stop offset="0.855469" stop-color="#95681A"/>
<stop offset="0.859375" stop-color="#946618"/>
<stop offset="0.863281" stop-color="#936517"/>
<stop offset="0.867188" stop-color="#926416"/>
<stop offset="0.875" stop-color="#926416"/>
<stop offset="1" stop-color="#926416"/>
</linearGradient>
</defs>
</svg>
